<svg width="200" height="150" viewBox="0 0 200 150" fill="none" xmlns="http://www.w3.org/2000/svg">
<g clip-path="url(#clip0)">
<path d="M171.11 81.8549C163.61 95.3549 166.344 123.298 150.61 131.355C135.329 139.179 80.1702 136.855 57.1097 136.855C36.706 136.855 39.7363 116.644 25.1097 110.355C6.18294 102.217 19.61 83.98 28.1098 69.855C37.6098 58.48 23.8754 37.9114 39.6097 29.855C54.8899 22.031 88.5491 45.355 111.61 45.355C134.67 45.355 172.547 22.3546 181.61 36.8549C189.11 48.8547 175.61 69.3549 171.11 81.8549Z" fill="#78D2EE" fill-opacity="0.3"/>
<path d="M179.623 122.625H27.248V125.625H179.623V122.625Z" fill="#005B9D"/>
<path d="M179.623 122.625H27.248V125.625H179.623V122.625Z" fill="black" fill-opacity="0.3"/>
<path d="M41.373 107.5L27.248 122.625H179.623L161.373 107.5H41.373Z" fill="url(#paint0_linear)"/>
<path d="M91.8207 111.569L54.1383 111.317C53.6315 111.315 53.1737 111.619 52.9793 112.087L51.2834 116.391C51.0102 117.049 51.5483 117.781 52.2606 117.783L92.0159 117.809C92.7368 117.81 93.3521 117.348 93.3086 116.628L93.0638 112.744C93.024 112.086 92.48 111.572 91.8207 111.569Z" fill="url(#paint1_linear)"/>
<path d="M91.8248 111.319L54.332 111.18C53.8252 111.178 53.3674 111.482 53.173 111.95L51.3346 116.377C51.0615 117.034 51.5503 117.656 52.2624 117.657C52.2627 117.657 52.2626 117.657 52.2629 117.657C52.2747 117.657 91.2971 117.682 92.0179 117.683C92.7387 117.685 93.3539 117.223 93.3104 116.503L93.0679 112.494C93.0281 111.836 92.4841 111.322 91.8248 111.319Z" fill="black"/>
<path d="M91.8292 111.07L54.3363 110.93C53.8295 110.928 53.3717 111.233 53.1773 111.701L51.339 116.127C51.0658 116.785 51.5484 117.51 52.2608 117.511L92.0648 117.579C92.7857 117.58 93.3582 116.973 93.3147 116.254L93.0723 112.244C93.0325 111.586 92.4884 111.072 91.8292 111.07Z" fill="#0B387B"/>
<path d="M91.833 110.82L54.3402 110.68C53.8334 110.678 53.3756 110.983 53.1812 111.451L51.2898 116.016C51.0166 116.674 51.4993 117.399 52.2116 117.4L92.022 117.434C92.7429 117.435 93.3154 116.828 93.2719 116.108L93.0761 111.994C93.0363 111.336 92.4923 110.822 91.833 110.82Z" fill="url(#paint2_linear)"/>
<path d="M71.2665 113.612C71.8606 113.621 72.2067 113.498 72.3318 113.5C72.4569 113.502 72.8808 113.66 73.5181 113.649C74.1554 113.638 74.6163 113.441 74.6163 113.441C74.6163 113.441 73.8675 113.322 73.8716 113.074C73.8762 112.794 74.7227 112.679 74.7227 112.679C74.7227 112.679 74.2046 112.175 73.4491 112.131C73.0116 112.105 72.9223 112.224 72.478 112.212C72.0805 112.201 72.0105 112.107 71.4789 112.098C70.9472 112.09 70.1932 112.508 69.9962 112.859C69.8351 113.147 70.3595 113.597 71.2665 113.612Z" fill="url(#paint3_linear)"/>
<path d="M72.5746 113.956C72.3577 113.834 72.3294 113.651 72.3294 113.651C72.3294 113.651 72.9229 113.703 73.1716 113.794C73.4204 113.884 73.6047 114.091 73.5103 114.122C73.416 114.153 72.7916 114.078 72.5746 113.956Z" fill="url(#paint4_linear)"/>
<path d="M69.126 127.625C63.751 131.02 65.001 137.875 65.001 137.875H141.876C141.876 137.875 143.751 123.25 136.501 124.5C129.251 125.75 116.751 132.25 101.626 132.25C86.501 132.25 74.501 124.231 69.126 127.625Z" fill="#78D2EE"/>
<path d="M69.126 127.625C63.751 131.02 65.001 137.875 65.001 137.875H141.876C141.876 137.875 143.751 123.25 136.501 124.5C129.251 125.75 116.751 132.25 101.626 132.25C86.501 132.25 74.501 124.231 69.126 127.625Z" fill="#0B387B"/>
<path d="M69.1248 128.875C64.375 131.875 64.9998 139.125 64.9998 139.125H141.875C141.875 139.125 142.875 124.36 136.5 125.75C130.125 127.14 116.75 133.5 101.625 133.5C86.4998 133.5 73.8745 125.875 69.1248 128.875Z" fill="url(#paint5_linear)"/>
<path d="M145 99C145 99 145.875 100.125 149.875 100.125C153.875 100.125 154.25 99 154.25 99C154.25 99.2716 154.25 106.363 154.25 110.253C154.25 111.633 153.131 112.75 151.75 112.75H147.5C146.119 112.75 145 111.634 145 110.253C145 106.339 145 99.1814 145 99Z" fill="url(#paint6_linear)"/>
<path d="M154.25 110.253V99C154.25 99 154.113 99.41 153.125 99.735C153.125 99.735 153.111 103.867 152.875 106.5C152.761 107.773 152.997 108.573 152.5 109.75C151.869 111.245 149.625 112.75 149.625 112.75H151.75C153.131 112.75 154.25 111.633 154.25 110.253Z" fill="black" fill-opacity="0.1"/>
<path d="M149.875 100.125C145.875 100.125 145 99 145 99C145 98.5 147.25 98.25 149.625 98.25C152 98.25 154.25 98.75 154.25 99C154.25 99 153.875 100.125 149.875 100.125Z" fill="#78D2EE"/>
<path d="M149.875 100.125C145.875 100.125 145 99 145 99C145 98.5 147.25 98.25 149.625 98.25C152 98.25 154.25 98.75 154.25 99C154.25 99 153.875 100.125 149.875 100.125Z" fill="url(#paint7_linear)"/>
<path d="M145.273 99.0748C145.21 99.029 145.167 98.9911 145.139 98.9645C145.147 98.9525 145.16 98.9378 145.181 98.9206C145.232 98.8784 145.315 98.8335 145.433 98.7888C145.668 98.6998 146.013 98.6233 146.44 98.5612C147.291 98.4374 148.441 98.375 149.625 98.375C150.805 98.375 151.953 98.4992 152.806 98.6542C153.232 98.7318 153.582 98.8165 153.822 98.896C153.943 98.936 154.031 98.9731 154.087 99.0047C154.092 99.0075 154.096 99.0102 154.101 99.0127C154.086 99.0338 154.066 99.0602 154.037 99.0909C153.952 99.1831 153.793 99.3148 153.509 99.4495C152.938 99.7198 151.865 100 149.875 100C147.886 100 146.684 99.7203 145.983 99.4461C145.633 99.3091 145.408 99.1735 145.273 99.0748ZM154.137 99.0399C154.137 99.0399 154.136 99.0396 154.136 99.039L154.137 99.0399Z" stroke="black" stroke-opacity="0.05" stroke-width="0.25"/>
<path fill-rule="evenodd" clip-rule="evenodd" d="M154.732 102.523C154.513 102.788 154.121 102.827 153.854 102.609C153.587 102.39 153.548 101.996 153.766 101.729L154.25 102.125C153.766 101.729 153.767 101.729 153.767 101.729L153.767 101.728L153.768 101.728L153.769 101.726L153.773 101.721C153.776 101.717 153.78 101.713 153.785 101.707C153.794 101.696 153.807 101.682 153.822 101.665C153.853 101.631 153.896 101.585 153.951 101.532C154.059 101.426 154.216 101.287 154.413 101.154C154.796 100.896 155.41 100.609 156.131 100.764C156.718 100.89 157.165 101.189 157.48 101.61C157.783 102.015 157.941 102.501 158.027 102.978C158.159 103.703 158.144 104.555 158.132 105.293C158.128 105.498 158.125 105.693 158.125 105.875C158.125 106.709 158.095 107.578 157.94 108.314C157.79 109.026 157.489 109.78 156.81 110.168C156.212 110.509 155.473 110.483 154.987 110.421C154.727 110.388 154.498 110.338 154.334 110.297C154.252 110.277 154.185 110.258 154.137 110.244C154.113 110.237 154.094 110.231 154.08 110.227C154.073 110.224 154.067 110.223 154.063 110.221L154.058 110.22L154.055 110.219L154.055 110.219C154.055 110.219 154.055 110.219 154.25 109.625L154.055 110.219C153.727 110.111 153.549 109.757 153.657 109.429C153.764 109.102 154.117 108.924 154.445 109.031L154.445 109.031L154.453 109.034C154.46 109.036 154.473 109.04 154.489 109.045C154.523 109.054 154.574 109.069 154.638 109.085C154.767 109.117 154.947 109.156 155.146 109.181C155.58 109.237 155.965 109.211 156.19 109.082C156.386 108.97 156.586 108.678 156.717 108.056C156.843 107.457 156.875 106.7 156.875 105.875C156.875 105.642 156.879 105.412 156.882 105.185C156.894 104.469 156.904 103.793 156.797 103.201C156.73 102.827 156.622 102.55 156.479 102.359C156.347 102.183 156.165 102.05 155.869 101.986C155.624 101.933 155.363 102.021 155.112 102.19C154.993 102.271 154.894 102.358 154.824 102.426C154.79 102.459 154.765 102.486 154.749 102.503C154.741 102.512 154.736 102.518 154.734 102.521C154.733 102.522 154.732 102.523 154.732 102.523Z" fill="#78D2EE"/>
<path fill-rule="evenodd" clip-rule="evenodd" d="M154.732 102.523C154.513 102.788 154.121 102.827 153.854 102.609C153.587 102.39 153.548 101.996 153.766 101.729L154.25 102.125C153.766 101.729 153.767 101.729 153.767 101.729L153.767 101.728L153.768 101.728L153.769 101.726L153.773 101.721C153.776 101.717 153.78 101.713 153.785 101.707C153.794 101.696 153.807 101.682 153.822 101.665C153.853 101.631 153.896 101.585 153.951 101.532C154.059 101.426 154.216 101.287 154.413 101.154C154.796 100.896 155.41 100.609 156.131 100.764C156.718 100.89 157.165 101.189 157.48 101.61C157.783 102.015 157.941 102.501 158.027 102.978C158.159 103.703 158.144 104.555 158.132 105.293C158.128 105.498 158.125 105.693 158.125 105.875C158.125 106.709 158.095 107.578 157.94 108.314C157.79 109.026 157.489 109.78 156.81 110.168C156.212 110.509 155.473 110.483 154.987 110.421C154.727 110.388 154.498 110.338 154.334 110.297C154.252 110.277 154.185 110.258 154.137 110.244C154.113 110.237 154.094 110.231 154.08 110.227C154.073 110.224 154.067 110.223 154.063 110.221L154.058 110.22L154.055 110.219L154.055 110.219C154.055 110.219 154.055 110.219 154.25 109.625L154.055 110.219C153.727 110.111 153.549 109.757 153.657 109.429C153.764 109.102 154.117 108.924 154.445 109.031L154.445 109.031L154.453 109.034C154.46 109.036 154.473 109.04 154.489 109.045C154.523 109.054 154.574 109.069 154.638 109.085C154.767 109.117 154.947 109.156 155.146 109.181C155.58 109.237 155.965 109.211 156.19 109.082C156.386 108.97 156.586 108.678 156.717 108.056C156.843 107.457 156.875 106.7 156.875 105.875C156.875 105.642 156.879 105.412 156.882 105.185C156.894 104.469 156.904 103.793 156.797 103.201C156.73 102.827 156.622 102.55 156.479 102.359C156.347 102.183 156.165 102.05 155.869 101.986C155.624 101.933 155.363 102.021 155.112 102.19C154.993 102.271 154.894 102.358 154.824 102.426C154.79 102.459 154.765 102.486 154.749 102.503C154.741 102.512 154.736 102.518 154.734 102.521C154.733 102.522 154.732 102.523 154.732 102.523Z" fill="url(#paint8_linear)"/>
<path d="M125.681 114.677C125.72 114.016 126.267 113.5 126.929 113.5H153.297C153.86 113.5 154.354 113.876 154.503 114.419L155.567 118.294C155.785 119.09 155.186 119.875 154.361 119.875H126.701C125.982 119.875 125.411 119.27 125.453 118.552L125.681 114.677Z" fill="#FFE458"/>
<path d="M125.681 114.677C125.72 114.016 126.267 113.5 126.929 113.5H153.297C153.86 113.5 154.354 113.876 154.503 114.419L155.567 118.294C155.785 119.09 155.186 119.875 154.361 119.875H126.701C125.982 119.875 125.411 119.27 125.453 118.552L125.681 114.677Z" fill="#0B387B"/>
<path d="M125.681 114.427C125.72 113.766 126.267 113.25 126.929 113.25H153.297C153.86 113.25 154.354 113.626 154.503 114.169L155.567 118.044C155.785 118.84 155.186 119.625 154.361 119.625H126.701C125.982 119.625 125.411 119.02 125.453 118.302L125.681 114.427Z" fill="url(#paint9_linear)"/>
<path d="M99.9989 104.875V100.125H115.374C115.374 100.125 115.374 103.75 115.374 104.5V104.502C115.374 105.251 115.374 105.626 115.749 107.125C116.124 108.625 117.624 111.407 116.749 112.5C116.291 113.072 112.749 113.585 106.749 113.5C100.749 113.415 98.1661 112.858 97.7488 112.5C96.8738 111.75 99.1241 108.125 99.6242 107.125C100.124 106.125 99.9989 105.5 99.9989 104.875Z" fill="#0B387B"/>
<path d="M99.9989 104.875V100.125H115.374C115.374 100.125 115.374 103.75 115.374 104.5V104.502C115.374 105.251 115.374 105.626 115.749 107.125C116.124 108.625 117.624 111.157 116.749 112.25C116.291 112.822 112.749 113.335 106.749 113.25C100.749 113.165 98.1661 112.608 97.7488 112.25C96.8738 111.5 99.1241 108.125 99.6242 107.125C100.124 106.125 99.9989 105.5 99.9989 104.875Z" fill="url(#paint10_linear)"/>
<path d="M99.625 107.125C100.125 106.125 99.9998 106.25 99.9998 105.625C99.9998 105.625 104.747 106 107.75 106C110.753 106 115.377 105.625 115.377 105.625C115.377 106.374 115.375 105.626 115.75 107.125C115.75 107.125 110.899 107.5 107.75 107.5C104.601 107.5 99.625 107.125 99.625 107.125Z" fill="black" fill-opacity="0.08"/>
<path d="M69.7716 98.2415L70.354 57.3536C70.3657 56.5336 71.2838 55.625 72.1039 55.625H141.875C142.704 55.625 143.625 56.5466 143.625 57.375V98.8622C143.625 99.6956 142.696 100.619 141.862 100.612L71.5087 100.013C70.6769 100.006 69.7598 99.0732 69.7716 98.2415Z" fill="#A5EAFC"/>
<path d="M70.0216 98.2415L70.6041 57.3536C70.6158 56.5336 71.2838 55.875 72.1039 55.875H141.875C142.704 55.875 143.375 56.5466 143.375 57.375V98.8622C143.375 99.6956 142.696 100.369 141.862 100.362L71.5087 99.7628C70.677 99.7558 70.0098 99.0732 70.0216 98.2415Z" fill="black"/>
<path d="M73.1349 95.74L73.8648 59.365C73.8703 59.0928 74.0925 58.875 74.3647 58.875H139.441C139.716 58.875 139.939 59.0963 139.941 59.3708L140.245 95.7458C140.248 96.0236 140.023 96.25 139.745 96.25H73.6348C73.3547 96.25 73.1292 96.02 73.1349 95.74Z" fill="url(#paint11_linear)"/>
<path fill-rule="evenodd" clip-rule="evenodd" d="M117.979 66.142C118.453 66.8216 118.286 67.7566 117.606 68.2302L108.969 74.2496H96.3996L81.9972 82.5493C81.2795 82.9629 80.3623 82.7164 79.9487 81.9986C79.535 81.2808 79.7816 80.3636 80.4994 79.95L95.597 71.2496H108.027L115.891 65.769C116.57 65.2954 117.505 65.4623 117.979 66.142Z" fill="#ABDCFF"/>
<path d="M134.624 117.875C133.874 116.75 134.374 114.875 134.374 114.875C134.374 114.875 136.125 114.5 137.875 114.5C139.624 114.5 141.624 114.875 141.624 114.875C141.624 114.875 141.749 116.875 141.125 117.875C140.59 118.73 139.094 118.713 137.875 118.75C136.874 118.78 135.22 118.769 134.624 117.875Z" fill="#78D2EE"/>
<path d="M134.624 117.875C133.874 116.75 134.374 114.875 134.374 114.875C134.374 114.875 136.125 114.25 137.875 114.25C139.624 114.25 141.624 114.875 141.624 114.875C141.624 114.875 141.749 116.875 141.125 117.875C140.591 118.73 139.094 118.713 137.875 118.75C136.874 118.78 135.22 118.769 134.624 117.875Z" fill="#0D4680"/>
<path d="M134.625 117.625C134.048 116.719 134.501 114.875 134.501 114.875C134.501 114.875 136.126 114.25 137.876 114.25C139.625 114.25 141.501 114.875 141.501 114.875C141.501 114.875 141.672 116.669 141.126 117.625C140.625 118.5 139.095 118.463 137.876 118.5C136.875 118.53 135.203 118.531 134.625 117.625Z" fill="url(#paint12_linear)"/>
<path d="M158.5 12.75C158.5 11.9216 159.172 11.25 160 11.25H178C178.828 11.25 179.5 11.9216 179.5 12.75V21.25C179.5 22.0784 178.828 22.75 178 22.75H165.845C165.618 22.75 165.394 22.8015 165.19 22.9007L161.625 24.875L162 22.75H160C159.172 22.75 158.5 22.0784 158.5 21.25V12.75Z" fill="url(#paint13_linear)"/>
<ellipse cx="165.25" cy="17.375" rx="1" ry="0.875" fill="#005B9D"/>
<ellipse cx="169" cy="17.375" rx="1" ry="0.875" fill="#005B9D"/>
<ellipse cx="172.75" cy="17.375" rx="1" ry="0.875" fill="#005B9D"/>
<path d="M132.5 11H114.5C113.672 11 113 11.6716 113 12.5V21C113 21.8284 113.672 22.5 114.5 22.5H116.5H120.345H132.5C133.328 22.5 134 21.8284 134 21V12.5C134 11.6716 133.328 11 132.5 11Z" fill="url(#paint14_linear)"/>
<ellipse cx="116" cy="13.375" rx="1" ry="0.875" fill="#06426D"/>
<ellipse cx="116" cy="16.375" rx="1" ry="0.875" fill="#06426D"/>
<ellipse cx="116" cy="19.375" rx="1" ry="0.875" fill="#06426D"/>
<path fill-rule="evenodd" clip-rule="evenodd" d="M117.75 13.375C117.75 13.2369 117.862 13.125 118 13.125H131.875C132.013 13.125 132.125 13.2369 132.125 13.375C132.125 13.5131 132.013 13.625 131.875 13.625H118C117.862 13.625 117.75 13.5131 117.75 13.375ZM117.75 16.5C117.75 16.3619 117.862 16.25 118 16.25H131.875C132.013 16.25 132.125 16.3619 132.125 16.5C132.125 16.6381 132.013 16.75 131.875 16.75H118C117.862 16.75 117.75 16.6381 117.75 16.5ZM117.5 19.5C117.5 19.3619 117.612 19.25 117.75 19.25H131.625C131.763 19.25 131.875 19.3619 131.875 19.5C131.875 19.6381 131.763 19.75 131.625 19.75H117.75C117.612 19.75 117.5 19.6381 117.5 19.5Z" fill="#06426D"/>
<path d="M176.75 31.25H158.75C157.922 31.25 157.25 31.9216 157.25 32.75V41.25C157.25 42.0784 157.922 42.75 158.75 42.75H160.75H164.595H176.75C177.578 42.75 178.25 42.0784 178.25 41.25V32.75C178.25 31.9216 177.578 31.25 176.75 31.25Z" fill="url(#paint15_linear)"/>
<path d="M158.75 42.75H160.75H164.595H176.75C177.578 42.75 178.25 42.0784 178.25 41.25H175.625L170.625 34.625L165.25 41.25L162.75 37.375L159.875 41.25H157.25C157.25 42.0784 157.922 42.75 158.75 42.75Z" fill="url(#paint16_linear)"/>
<ellipse cx="163" cy="35.125" rx="1" ry="0.875" fill="#78D2EE"/>
<path d="M84.5 12H66.5C65.6716 12 65 12.6716 65 13.5V22C65 22.8284 65.6716 23.5 66.5 23.5H68.5H72.345H84.5C85.3284 23.5 86 22.8284 86 22V13.5C86 12.6716 85.3284 12 84.5 12Z" fill="url(#paint17_linear)"/>
<ellipse cx="70" cy="17.875" rx="1" ry="0.875" fill="#06426D"/>
<ellipse cx="80.25" cy="17.875" rx="1" ry="0.875" fill="#06426D"/>
<path fill-rule="evenodd" clip-rule="evenodd" d="M77.3172 14.053C77.495 14.1591 77.5532 14.3893 77.4471 14.5672L73.1971 21.6922C73.091 21.87 72.8608 21.9282 72.683 21.8221C72.5051 21.716 72.4469 21.4858 72.553 21.308L76.803 14.183C76.9091 14.0051 77.1393 13.9469 77.3172 14.053Z" fill="#06426D"/>
<path d="M102 31.2495H84C83.1716 31.2495 82.5 31.9211 82.5 32.7495V41.2495C82.5 42.0779 83.1716 42.7495 84 42.7495H86H89.845H102C102.828 42.7495 103.5 42.0779 103.5 41.2495V32.7495C103.5 31.9211 102.828 31.2495 102 31.2495Z" fill="url(#paint18_linear)"/>
<path fill-rule="evenodd" clip-rule="evenodd" d="M95.3172 33.0525C95.495 33.1586 95.5532 33.3888 95.4471 33.5667L91.1971 40.6917C91.091 40.8695 90.8608 40.9277 90.683 40.8216C90.5051 40.7155 90.4469 40.4853 90.553 40.3075L94.803 33.1825C94.9091 33.0046 95.1393 32.9464 95.3172 33.0525Z" fill="#06426D"/>
<path fill-rule="evenodd" clip-rule="evenodd" d="M88.8852 33.8423C89.041 33.9787 89.0568 34.2156 88.9205 34.3715L86.5265 37.1074L88.9034 39.4844C89.0499 39.6308 89.0499 39.8682 88.9034 40.0147C88.757 40.1611 88.5195 40.1611 88.3731 40.0147L85.5 37.1416L88.356 33.8776C88.4924 33.7217 88.7293 33.7059 88.8852 33.8423ZM97.7598 33.8481C97.9125 33.7081 98.1497 33.7185 98.2897 33.8711L101.288 37.142L98.2722 40.0208C98.1224 40.1638 97.885 40.1583 97.742 40.0084C97.599 39.8586 97.6045 39.6213 97.7543 39.4783L100.238 37.107L97.7368 34.3779C97.5969 34.2252 97.6072 33.988 97.7598 33.8481Z" fill="#06426D"/>
<path d="M120.75 32.75C120.75 31.9216 121.422 31.25 122.25 31.25H140.25C141.078 31.25 141.75 31.9216 141.75 32.75V41.25C141.75 42.0784 141.078 42.75 140.25 42.75H128.095C127.868 42.75 127.644 42.8015 127.44 42.9007L123.875 44.875L124.25 42.75H122.25C121.422 42.75 120.75 42.0784 120.75 41.25V32.75Z" fill="url(#paint19_linear)"/>
<path fill-rule="evenodd" clip-rule="evenodd" d="M124.125 34.25C124.125 34.1119 124.237 34 124.375 34H138.25C138.388 34 138.5 34.1119 138.5 34.25C138.5 34.3881 138.388 34.5 138.25 34.5H124.375C124.237 34.5 124.125 34.3881 124.125 34.25ZM124.125 35.875C124.125 35.7369 124.237 35.625 124.375 35.625H138.25C138.388 35.625 138.5 35.7369 138.5 35.875C138.5 36.0131 138.388 36.125 138.25 36.125H124.375C124.237 36.125 124.125 36.0131 124.125 35.875ZM124.125 37.625C124.125 37.4869 124.237 37.375 124.375 37.375H138.25C138.388 37.375 138.5 37.4869 138.5 37.625C138.5 37.7631 138.388 37.875 138.25 37.875H124.375C124.237 37.875 124.125 37.7631 124.125 37.625ZM124.125 39.25C124.125 39.1119 124.237 39 124.375 39H130.5C130.638 39 130.75 39.1119 130.75 39.25C130.75 39.3881 130.638 39.5 130.5 39.5H124.375C124.237 39.5 124.125 39.3881 124.125 39.25Z" fill="#06426D"/>
<path d="M94.5 81.25H97.5V93.25H94.5V81.25Z" fill="#005B9D"/>
<path d="M84.75 84.5H87.75V93.25H84.75V84.5Z" fill="#005B9D"/>
<path d="M104.25 77H107.25V93.25H104.25V77Z" fill="#ABDCFF"/>
<path d="M114 72H117V93.25H114V72Z" fill="#ABDCFF"/>
<path d="M123.5 66.25H126.5V93.25H123.5V66.25Z" fill="#ABDCFF"/>
<path d="M118.875 69.625L114.375 64.625L120.5 64L118.875 69.625Z" fill="#ABDCFF"/>
<path d="M101.231 65.0566H74.4791C72.0819 65.0566 70.1387 66.9999 70.1387 69.3971V93.9928C70.1387 96.39 72.0819 98.3332 74.4791 98.3332H80.2663H91.3923H101.231C103.628 98.3332 105.571 96.39 105.571 93.9928V69.3971C105.571 66.9999 103.628 65.0566 101.231 65.0566Z" fill="black" fill-opacity="0.34"/>
<path d="M97.1755 60.75H45.0904C42.6933 60.75 40.75 62.6933 40.75 65.0904V89.6862C40.75 92.0833 42.6933 94.0266 45.0904 94.0266H50.8777H62.0037H97.1755C99.5727 94.0266 101.516 92.0833 101.516 89.6862V65.0904C101.516 62.6933 99.5727 60.75 97.1755 60.75Z" fill="url(#paint20_linear)"/>
<path fill-rule="evenodd" clip-rule="evenodd" d="M53.25 67.875C53.25 67.5298 53.5298 67.25 53.875 67.25H92.625C92.9702 67.25 93.25 67.5298 93.25 67.875C93.25 68.2202 92.9702 68.5 92.625 68.5H53.875C53.5298 68.5 53.25 68.2202 53.25 67.875ZM53.25 70.375C53.25 70.0298 53.5298 69.75 53.875 69.75H78.25C78.5952 69.75 78.875 70.0298 78.875 70.375C78.875 70.7202 78.5952 71 78.25 71H53.875C53.5298 71 53.25 70.7202 53.25 70.375ZM53.25 75.625C53.25 75.2798 53.5298 75 53.875 75H92.625C92.9702 75 93.25 75.2798 93.25 75.625C93.25 75.9702 92.9702 76.25 92.625 76.25H53.875C53.5298 76.25 53.25 75.9702 53.25 75.625ZM53.25 78C53.25 77.6548 53.5298 77.375 53.875 77.375H78.25C78.5952 77.375 78.875 77.6548 78.875 78C78.875 78.3452 78.5952 78.625 78.25 78.625H53.875C53.5298 78.625 53.25 78.3452 53.25 78ZM53.25 83.25C53.25 82.9048 53.5298 82.625 53.875 82.625H92.625C92.9702 82.625 93.25 82.9048 93.25 83.25C93.25 83.5952 92.9702 83.875 92.625 83.875H53.875C53.5298 83.875 53.25 83.5952 53.25 83.25ZM53.25 85.75C53.25 85.4048 53.5298 85.125 53.875 85.125H69.625C69.9702 85.125 70.25 85.4048 70.25 85.75C70.25 86.0952 69.9702 86.375 69.625 86.375H53.875C53.5298 86.375 53.25 86.0952 53.25 85.75Z" fill="#005B9D"/>
<path d="M44.5 68.0005C44.5 67.5863 44.8358 67.2505 45.25 67.2505H48.5C48.9142 67.2505 49.25 67.5863 49.25 68.0005V70.7505C49.25 71.1647 48.9142 71.5005 48.5 71.5005H45.25C44.8358 71.5005 44.5 71.1647 44.5 70.7505V68.0005Z" fill="#005B9D"/>
<path d="M44.5 75.5C44.5 75.0858 44.8358 74.75 45.25 74.75H48.5C48.9142 74.75 49.25 75.0858 49.25 75.5V78.25C49.25 78.6642 48.9142 79 48.5 79H45.25C44.8358 79 44.5 78.6642 44.5 78.25V75.5Z" fill="#005B9D"/>
<path d="M44.75 83C44.75 82.5858 45.0858 82.25 45.5 82.25H48.75C49.1642 82.25 49.5 82.5858 49.5 83V85.75C49.5 86.1642 49.1642 86.5 48.75 86.5H45.5C45.0858 86.5 44.75 86.1642 44.75 85.75V83Z" fill="#005B9D"/>
</g>
<defs>
<linearGradient id="paint0_linear" x1="101.666" y1="108.667" x2="95.666" y2="133.333" gradientUnits="userSpaceOnUse">
<stop stop-color="#3A93F1"/>
<stop offset="1" stop-color="#4DB5F6"/>
</linearGradient>
<linearGradient id="paint1_linear" x1="85.1241" y1="106.709" x2="59.3608" y2="126.357" gradientUnits="userSpaceOnUse">
<stop stop-color="#59A8F5"/>
<stop offset="1" stop-color="#97C7F4"/>
</linearGradient>
<linearGradient id="paint2_linear" x1="87.0007" y1="104.333" x2="72.0007" y2="127.333" gradientUnits="userSpaceOnUse">
<stop stop-color="#2150A1"/>
<stop offset="1" stop-color="#73B1EC"/>
</linearGradient>
<linearGradient id="paint3_linear" x1="72.3239" y1="114.111" x2="71.1779" y2="111.292" gradientUnits="userSpaceOnUse">
<stop stop-color="#133EA9"/>
<stop offset="1" stop-color="#1E64C1"/>
</linearGradient>
<linearGradient id="paint4_linear" x1="72.3239" y1="114.111" x2="71.1779" y2="111.292" gradientUnits="userSpaceOnUse">
<stop stop-color="#133EA9"/>
<stop offset="1" stop-color="#1E64C1"/>
</linearGradient>
<linearGradient id="paint5_linear" x1="126.667" y1="116.333" x2="77.6667" y2="152.333" gradientUnits="userSpaceOnUse">
<stop stop-color="#59A8F5"/>
<stop offset="1" stop-color="#97C7F4"/>
</linearGradient>
<linearGradient id="paint6_linear" x1="152.415" y1="88.2109" x2="143.407" y2="88.9497" gradientUnits="userSpaceOnUse">
<stop stop-color="#59A8F5"/>
<stop offset="1" stop-color="#97C7F4"/>
</linearGradient>
<linearGradient id="paint7_linear" x1="149.625" y1="98.25" x2="152" y2="100.667" gradientUnits="userSpaceOnUse">
<stop stop-color="#498CCD"/>
<stop offset="1" stop-color="#115FAC"/>
</linearGradient>
<linearGradient id="paint8_linear" x1="157.244" y1="93.9775" x2="152.834" y2="94.2403" gradientUnits="userSpaceOnUse">
<stop stop-color="#59A8F5"/>
<stop offset="1" stop-color="#97C7F4"/>
</linearGradient>
<linearGradient id="paint9_linear" x1="150.974" y1="107.601" x2="137.128" y2="125.5" gradientUnits="userSpaceOnUse">
<stop stop-color="#2150A1"/>
<stop offset="1" stop-color="#73B1EC"/>
</linearGradient>
<linearGradient id="paint10_linear" x1="107.284" y1="100.125" x2="107.284" y2="113.259" gradientUnits="userSpaceOnUse">
<stop stop-color="#739BF3"/>
<stop offset="1" stop-color="#2F67E2"/>
</linearGradient>
<linearGradient id="paint11_linear" x1="91.9993" y1="60.6667" x2="129.333" y2="109" gradientUnits="userSpaceOnUse">
<stop stop-color="#003BE1"/>
<stop offset="1" stop-color="#2E80ED"/>
</linearGradient>
<linearGradient id="paint12_linear" x1="137.929" y1="114.25" x2="134.826" y2="119.434" gradientUnits="userSpaceOnUse">
<stop stop-color="#133EA9"/>
<stop offset="1" stop-color="#1E64C1"/>
</linearGradient>
<linearGradient id="paint13_linear" x1="169" y1="11.25" x2="158.667" y2="27" gradientUnits="userSpaceOnUse">
<stop stop-color="#4BB2F6"/>
<stop offset="1" stop-color="#3991F0"/>
</linearGradient>
<linearGradient id="paint14_linear" x1="123.5" y1="11" x2="115.441" y2="25.5531" gradientUnits="userSpaceOnUse">
<stop stop-color="#4BB2F6"/>
<stop offset="1" stop-color="#3991F0"/>
</linearGradient>
<linearGradient id="paint15_linear" x1="163.153" y1="31.8013" x2="174.59" y2="46.8594" gradientUnits="userSpaceOnUse">
<stop stop-color="#003BE1"/>
<stop offset="1" stop-color="#2E80ED"/>
</linearGradient>
<linearGradient id="paint16_linear" x1="159.25" y1="36.038" x2="166.299" y2="51.2806" gradientUnits="userSpaceOnUse">
<stop stop-color="#AAEDFF"/>
<stop offset="1" stop-color="#3DA3BE"/>
</linearGradient>
<linearGradient id="paint17_linear" x1="75.5" y1="12" x2="67.4411" y2="26.5531" gradientUnits="userSpaceOnUse">
<stop stop-color="#4BB2F6"/>
<stop offset="1" stop-color="#3991F0"/>
</linearGradient>
<linearGradient id="paint18_linear" x1="93" y1="31.2495" x2="84.9411" y2="45.8026" gradientUnits="userSpaceOnUse">
<stop stop-color="#4BB2F6"/>
<stop offset="1" stop-color="#3991F0"/>
</linearGradient>
<linearGradient id="paint19_linear" x1="131.25" y1="31.25" x2="120.917" y2="47" gradientUnits="userSpaceOnUse">
<stop stop-color="#4BB2F6"/>
<stop offset="1" stop-color="#3991F0"/>
</linearGradient>
<linearGradient id="paint20_linear" x1="46.5372" y1="66.5372" x2="81.2606" y2="119.587" gradientUnits="userSpaceOnUse">
<stop stop-color="#AAEDFF"/>
<stop offset="1" stop-color="#3DA3BE"/>
</linearGradient>
<clipPath id="clip0">
<rect width="200" height="150" fill="white"/>
</clipPath>
</defs>
</svg>
